<svg xmlns="http://www.w3.org/2000/svg" xmlns:xlink="http://www.w3.org/1999/xlink" width="110" height="40" viewBox="0 0 110 40"><defs><path id="a" d="M1029.6 2359.28c.2 0 .38-.05.55-.1v1.33c-.34.14-.76.2-1.17.2-.76 0-1.37-.29-1.66-.96a4.82 4.82 0 0 1-3.13 1.07c-1.5 0-2.9-.83-2.9-2.54 0-2.13 1.97-2.78 3.7-2.78.7 0 1.5.1 2.16.24v-.3c0-1.03-.76-1.76-2.18-1.76-1.23 0-2.25.31-3 .64v-1.7c.67-.22 1.86-.54 3.19-.54 2.35 0 3.84 1.12 3.84 3.63v2.97c0 .46.27.6.6.6.33 0 0 0 0 0zm-6.41-1.12c0 .81.72 1.23 1.55 1.23.89 0 1.75-.33 2.4-.99v-1.4c-.5-.1-1.2-.2-1.8-.2-1.04 0-2.15.32-2.15 1.36zm12.3-6.08c.94 0 1.84.2 2.56.64v1.69c-.6-.43-1.45-.7-2.3-.7-1.47 0-2.95.79-2.95 2.74 0 1.88 1.43 2.73 2.92 2.73.88 0 1.76-.26 2.42-.64v1.71c-.8.38-1.7.57-2.75.57-2.21 0-4.48-1.35-4.48-4.3 0-3.1 2.37-4.44 4.58-4.44 2.22 0 0 0 0 0zm12.12 7.2c.19 0 .38-.05.55-.1v1.33c-.34.14-.76.2-1.17.2-.76 0-1.37-.29-1.66-.96a4.82 4.82 0 0 1-3.13 1.07c-1.5 0-2.9-.83-2.9-2.54 0-2.13 1.97-2.78 3.7-2.78.7 0 1.5.1 2.16.24v-.3c0-1.03-.77-1.76-2.18-1.76-1.23 0-2.25.31-3 .64v-1.7c.66-.22 1.86-.54 3.19-.54 2.35 0 3.83 1.12 3.83 3.63v2.97c0 .46.28.6.6.6.34 0 0 0 0 0zm-6.41-1.12c0 .81.72 1.23 1.55 1.23.88 0 1.75-.33 2.4-.99v-1.4c-.5-.1-1.2-.2-1.8-.2-1.05 0-2.15.32-2.15 1.36zm16.67-9.66v12.1h-1.65v-1.32a3.86 3.86 0 0 1-3.18 1.54c-2.51 0-4.12-1.99-4.12-4.37 0-2.39 1.61-4.37 4.12-4.37 1.45 0 2.42.64 2.99 1.3v-4.88zm-4.5 5.2c-1.5 0-2.58 1.12-2.58 2.75 0 1.62 1.09 2.75 2.57 2.75 1.3 0 2.25-.83 2.65-1.75v-2.02a2.9 2.9 0 0 0-2.65-1.73c-1.3 0 0 0 0 0zm10.5-1.62c3.3 0 4.44 2.66 3.9 5.06h-6.23c.2 1.49 1.66 2.1 3.18 2.1 1 0 1.92-.23 2.63-.58v1.6c-.76.35-1.82.56-2.98.56-2.54 0-4.7-1.45-4.7-4.37 0-3 2.28-4.37 4.2-4.37 1.92 0 0 0 0 0zm.09 1.53c-1.25 0-2.37.75-2.44 2.15h4.6c.1-.73-.35-2.15-2.16-2.15-1.82 0 0 0 0 0zm5.7 6.99v-8.3h1.64v1.04a3.8 3.8 0 0 1 2.77-1.26c1.24 0 2.1.51 2.6 1.33a4.1 4.1 0 0 1 2.9-1.33c2.19 0 3.14 1.62 3.14 3.33v5.19h-1.85v-5.14c0-1.07-.64-1.74-1.64-1.74-.92 0-1.63.6-2.06 1.12.02.2.04.38.04.57v5.19h-1.85v-5.14c0-1.07-.64-1.74-1.64-1.74-1 0-1.77.72-2.2 1.28v5.6zm21.2-8.3h1.94l-3.89 9.42c-.9 2.16-2.07 2.89-3.33 2.89-.36 0-.73-.06-1.09-.14v-1.58c.28.1.57.13.85.13.9 0 1.57-.64 2.05-1.94l.18-.41-3.94-8.37h1.97l2.8 6.26zm-67.13-18.33v4.72a3.78 3.78 0 0 1 2.68-1.14c2.1 0 3.42 1.42 3.42 3.39v5.13h-1.85v-4.89c0-1.35-.82-1.99-1.93-1.99-1.05 0-1.85.71-2.32 1.39v5.5h-1.85v-12.1zm11.17.85v2.96h3v1.62h-3v3.8c0 1.1.5 1.45 1.57 1.45.6 0 1.16-.12 1.68-.32v1.59c-.62.22-1.42.36-2.23.36-1.61 0-2.85-.8-2.85-2.73v-4.15h-1.49v-1.62h1.49v-2.51zm5.37 11.25v-8.3h1.64v1.04a3.8 3.8 0 0 1 2.77-1.26c1.24 0 2.1.52 2.6 1.33a4.1 4.1 0 0 1 2.9-1.33c2.19 0 3.14 1.63 3.14 3.34v5.18h-1.85v-5.13c0-1.07-.64-1.75-1.64-1.75-.92 0-1.63.6-2.06 1.13.02.19.04.38.04.57v5.18h-1.85v-5.13c0-1.07-.64-1.75-1.64-1.75-1 0-1.77.73-2.2 1.28v5.6zm15.76-12.1h1.84v12.1h-1.84zm-41.87.08v26.55l-14.49 8.61-14.48-8.61v-26.55l14.48-1.52.15.02zm-1.9 14.4l-3.88 2.32v4.3-.01 1.31l-8.7 5.22-8.64-5.19.01-1.31 8.63 5.13-.02-1.39-8.63-5.18v-1.32l8.6 5.12-.01-1.35-12.54-7.46v10.88l12.6 7.49 12.58-7.5zm-12.66-8.78l-12.5 7.5 12.48 7.42 2.13-1.28-2.09-1.23.01-1.31 3.2 1.88.02-.02 1-.66-4.23-2.52.01-1.3 5.35 3.17.93-.54.13-.08.06-.03-6.48-3.86.01-1.31 7.59 4.5 1.59-.93 3.44-2.03zm12.66-3.91l-12.59-1.32-12.59 1.32v9.95l12.52-7.45 12.66 7.46z"/></defs><g transform="translate(-984 -2331)"><use fill="#fff" xlink:href="#a"/></g></svg>