<svg xmlns="http://www.w3.org/2000/svg" xmlns:xlink="http://www.w3.org/1999/xlink" width="34" height="34" viewBox="0 0 34 34"><defs><path id="a" d="M95.86 2352.23a15.7 15.7 0 1 1 0 31.38 15.7 15.7 0 0 1 0-31.38zm6.28 23.6c.96 0 1.74-.77 1.74-1.74v-12.3c0-.97-.78-1.75-1.74-1.75H89.8c-.96 0-1.75.78-1.75 1.74v12.31c0 .97.78 1.75 1.75 1.75zm0-9.1v6.8c0 .33-.27.6-.61.6H90.46a.61.61 0 0 1-.6-.6v-6.8h1.37a4.93 4.93 0 1 0 9.53 0h1.38zm-6.14-1.6c1.57 0 3.06 1.15 3.06 2.84 0 1.7-1.5 2.84-3.06 2.84a2.84 2.84 0 0 1 0-5.68zm3.7-3.31h1.86c.34 0 .61.27.61.6v1.87c0 .34-.27.61-.61.61H99.7a.61.61 0 0 1-.62-.6v-1.87c0-.34.28-.61.62-.61z"/></defs><g opacity=".8" transform="translate(-79 -2351)"><use fill="#fff" xlink:href="#a"/></g></svg>