<svg xmlns="http://www.w3.org/2000/svg" xmlns:xlink="http://www.w3.org/1999/xlink" width="157" height="66" viewBox="0 0 157 66"><defs><path id="a" d="M174.83 61.85c-.45 6.77-5.75 11.1-12.89 11.1-6.87 0-10-3.16-10-6.1a3.44 3.44 0 0 1 2.48-3.2c.18-.04.29-.05.39-.05.28 0 .44.13.53.24.2.26.14.57.05.95a4.52 4.52 0 0 0 .79 4.15c1.16 1.39 3.36 2.12 6.35 2.12 4.55 0 9.62-3.6 9.9-9.4.2-4.78-2.15-8.13-6.06-8.77.34.84.54 1.77.6 2.77.18 2.59-.48 4.85-1.84 6.37a6.06 6.06 0 0 1-4.35 2.01 4.19 4.19 0 0 1-3.51-1.4 5.58 5.58 0 0 1-1.13-4.42 8.43 8.43 0 0 1 5.89-7.1c-1.64-1.3-4.02-2.08-6.81-2.18-3.24-.13-6.06.54-8.43 1.97-1.2 7.44-3.7 16.01-6.78 16.01-.64 0-1.23-.39-1.68-1.1-1.04-1.7-1.26-5.31.73-9.25 1.48-2.91 3.17-5.05 5.19-6.54.25-2.36.44-4.8.56-7.3-.98 1.26-2.15 1.97-3.35 2.01-1 1.4-2.3 2.16-3.65 2.16a4.31 4.31 0 0 1-3.16-1.4c-1.31-1.37-1.98-3.5-1.88-5.99.16-4 1.8-7.01 4.39-8.04.52-.21 1.04-.06 1.25.34a3.61 3.61 0 0 1 2.1-1.25c.74-.13 1.42.16 2 .81 1.18 1.36 1.64 3.98 1.22 7a17.48 17.48 0 0 1-1.11 4.25c.93-.68 1.84-2.45 2.34-4.7.01-1.49 0-2.9-.02-4.27-.03-1.06.31-1.64.6-1.94.3-.3.7-.48 1.09-.48 1.08 0 1.13.62 1.13 1.73l.02 1.31.01.77c1.2-2.61 2.75-4.05 4.4-4.05.73 0 1.4.3 1.94.86 1.1 1.16 1.61 3.44 1.48 6.57-.28 5.66-3.5 8.24-6.56 8.24-.58 0-1.12 0-1.64-.2l-.2 2.22c2.46-1.06 5.33-1.06 8.83-.83 4.06.24 7.08 2.4 8.97 4.4h.24c2.77 0 5.26.22 7 2.08a9.52 9.52 0 0 1 2.58 7.52zm-38.86-22.8c-.1 2.01.38 3.79 1.29 4.73.26.27.67.6 1.18.6.28 0 .57-.1.86-.26-1.38-.9-2.37-2.73-2.59-4.92-.19-1.84 0-3.81.58-5.41-.73 1.07-1.22 2.96-1.32 5.25zm4.96-5.12c-.05-.06-.13-.13-.2-.13-.85.25-1.92 2.42-1.79 4.94.06 1.42.56 3.2 1.73 3.92.43-.8.89-2.09 1-4.13.16-2.45-.27-4.1-.74-4.6zm11.4 5.14c.2-3.24-.2-4.91-.66-5.4-.13-.13-.22-.13-.25-.13-.64 0-2.7 2.88-3.75 9.67l-.06 1.03c.34.27.8.4 1.4.4 1.82 0 3.06-2.09 3.31-5.57zm-8.58 14.4c-.84.96-1.56 2.04-2.15 3.21-1.78 3.56-1.7 6.02-1.22 6.8.1.15.19.23.28.24.59-.29 2.05-3.62 3.09-10.25zm20.87 2.76a7.02 7.02 0 0 0-1-3.34 5.93 5.93 0 0 0-4.96 5c-.22 1.3 0 2.41.58 3.13a2.4 2.4 0 0 0 1.9.83h.11c.77 0 1.47-.31 2.04-.91.96-1.02 1.45-2.74 1.33-4.7zm-31.24-8.43c-.05.22-.28.78-1.49.63-2.44-.27-3.57-3.24-3.45-9.08.03-1.42.15-2.6.25-3.55.1-.88.2-1.88.06-2.08-.73.04-3.55 3.81-4.57 10.64-.05 1.73-1.03 2.2-1.6 2.2-1.04 0-1.22-.44-1.22-1.68 0-1.46.01-2 .04-3.08l.08-3.3c.08-2.74.25-5.39.53-7.89-1.38.24-2.88.25-4.38.04-4.26-.57-5.7-3.3-5.6-5.69.1-1.5 1.42-2.37 2.28-2.58.18-.04.3-.06.4-.06.3 0 .46.16.53.26.2.28.11.58-.04 1.03l-.08.25c-.18.69-.16 1.47.06 2.18.13.27.4.66.84.66.3 0 .67-.18.98-.5a4.36 4.36 0 0 0 1.05-3.08c-.04-2.73-1.6-4.33-4.41-4.51a8.37 8.37 0 0 0-.54-.02c-2.53 0-5.25 1.28-5.64 4.13-.48 3.72 2.65 5.62 5.97 7.63l.37.23c3.42 2.11 7.05 4.75 6.78 9.45-.31 5-4.77 8.79-10.37 8.79-.7 0-1.4-.06-2.1-.18-6.88-1.2-9.05-6.53-8.8-10.75a7.6 7.6 0 0 1 2.28-5.18c.6-.54 2.43-1.14 3.02-1.22.72-.1.9.2.98.38.19.43-.13.86-.5 1.26-1.97 1.92-2.83 3.43-3.1 5.4a6.73 6.73 0 0 0 1.44 5.15 7.31 7.31 0 0 0 5.2 2.57c4.2.32 8.15-2.2 8.53-5.34.48-3.82-2.45-6.13-5.76-8.34l-.7-.46c-3.45-2.27-7.03-4.63-6.65-8.66.38-4.59 5.08-7 9.53-7l.36.02c2.28.08 4.1.8 5.27 2.1a5.95 5.95 0 0 1 1.4 4.5c-.11 2.36-1.26 4.46-2.9 5.47a8.75 8.75 0 0 0 4.5.16c1.2-8.84 3.72-14.53 6.43-14.53.62 0 1.21.41 1.67 1.15 1.17 1.91 1.4 5.72-.42 9.3a10.83 10.83 0 0 1-5.11 5.16 62.98 62.98 0 0 0-.46 6.92c1.43-3.12 3.5-5.73 5.64-5.73.51 0 .93.17 1.24.51.9.97.77 3.11.49 6.82-.54 6.51.2 8.18.9 8.44.86.38.82.91.79 1.06zm-5.82-23.38c1.46-2.91 1.27-5.64.82-6.67-.14-.3-.26-.4-.3-.41-.54.24-2 3.8-2.98 10.08 1-.74 1.83-1.74 2.46-3zm-28.25 7.64s-.34 3.47-.8 6.65c-2.92 21.9-5.72 24.44-7.57 24.44-.63 0-1.18-.31-1.6-.91-1.09-1.54-1.11-4.67-.06-7.6A29.3 29.3 0 0 1 94.9 45l.03-.28c-.87 1.33-1.83 2.05-2.82 2.05-.98 0-2.65-.5-3.58-3.54-1.5 2.62-3.47 4.09-5.54 4.09s-3.9-1.3-4.91-3.4c-.8 1.94-1.91 3.78-3.23 3.78-1.08 0-1.91-1.27-2.3-3.41-.95 1.59-2.08 2.5-3.25 2.6h-.17c-1.24 0-2.67-1.06-3.4-3.12-1.21 2.2-2.6 3.44-3.87 3.44-1.69 0-3.32-2-4.29-5.13-1.07 2.61-2.73 5.11-4.57 5.11-.7 0-1.42-.37-2.08-1.07-1.52-1.61-3.18-5.62-2.83-11.63.52-8.31 3.55-19.9 7.33-19.9.28 0 .7.1 1.06.54 1.29 1.63.76 7.12-.02 10.5a49.19 49.19 0 0 1-5.11 12.28c.28 4.75 1.4 6.88 2.12 6.88.76 0 2.43-2.67 3.31-6.85-.12-1.3-.13-2.65-.05-4.04.54-8.71 3.72-20.87 7.66-20.87.3 0 .73.1 1.1.56 1.35 1.7.8 7.46-.03 11.01A51.59 51.59 0 0 1 60.1 37.5c.3 5 1.5 7.25 2.26 7.25.57 0 1.92-1.64 2.98-5.16.65-6.05 4.2-8.2 7.02-8.2 1.53 0 2.4.58 2.86 1.07.58.62.87 1.47.82 2.4-.13 1-1.65 1.88-2.4 2.02-.54.12-.8-.1-.9-.23-.22-.32-.1-.66.12-1.23l.05-.13c.28-.9.3-1.53.07-1.84-.16-.22-.5-.33-1-.33-1.66 0-3.04 2.3-3.45 5.7-.32 2.55.26 4.52.93 5.28.15.17.32.28.44.28.81 0 1.92-1.63 2.48-4.73l.02-.31c.02-.28.04-.53.1-.87.19-.98 1.31-1.42 2.28-1.42.42 0 .7.1.87.28l.15.17-.02.28c-.98 5.17-.67 7.09-.43 7.49.29-.26 1.01-1.47 1.9-4.94-.01-.3-.02-.62 0-.94.25-5.05 2.89-8.84 6.14-8.84.9 0 1.66.3 2.22.92 1.12 1.2 1.07 3.13 1.03 3.69-.13 1-1.65 1.8-2.4 1.94-.61.13-.81-.1-.9-.22-.2-.3-.09-.6.09-1.07l.08-.23c.38-1.07.56-2.45.15-3.03-.08-.12-.25-.28-.66-.28-1.27 0-2.39 2.9-2.55 6.6-.07 2.18.48 4.1 1.49 5.14.5.52 1.08.8 1.7.8 2.4 0 3.73-3.09 4.32-5-.15-1.93-.08-4.23.19-6.82.13-1.13 1.58-1.55 2.46-1.55.38 0 .62.08.77.25l.15.17-.01.28c-.85 6.68-.73 10.68.34 11.9.2.23.44.34.73.34.82 0 2.37-2.9 3.02-8.13.1-1.4.23-2.7.35-3.46.12-1.1 1.55-1.5 2.42-1.5.41 0 .67.08.83.28l.15.2zm-45.13-6.3c.98-3.78.93-6.98.64-7.85-1.03 1.39-3.09 9.68-3.45 15.84a55.1 55.1 0 0 0 2.81-8zm8.94-1.02c1.05-4.05.98-7.44.65-8.3-1.08 1.36-3.3 10.25-3.66 16.82a58.08 58.08 0 0 0 3-8.52zm28.41 30.02c-.98 2.65-.83 4.3-.37 4.98.13.17.24.24.31.25.57-.23 1.8-3.46 2.91-11.14a35.71 35.71 0 0 0-2.85 5.91zm-8.73-1.13a2.6 2.6 0 0 1-1.03 2.18c-.9.75-2.36 1.11-4.47 1.11-3.67 0-8.71-1.07-14.05-2.2l-2.94-.63a111.34 111.34 0 0 0-16.33-2.3c-1.58 5.35-3.82 8.12-7.05 8.7a6.28 6.28 0 0 1-6.19-2.69 4.4 4.4 0 0 1-.27-4.36c1.18-2.63 4.5-3.86 10.43-3.86l1.06.01c.33-1.41.6-3 .82-4.79a8.44 8.44 0 0 1-5.82 2.63h-.3a8.38 8.38 0 0 1-6.4-2.82c-2.43-2.7-3.5-7.09-2.96-12.06.21-2 .63-3.84 1.22-5.5-2.49-.6-4.53-1.87-5.66-3.55a6.68 6.68 0 0 1-.92-5.22c1.31-6.57 9.73-8.6 12.65-8.6.52 0 .9.05 1.16.17.37.18 1.35.64 1.19 1.36-.1.42-.53.66-1.16.66-.32 0-.65-.06-.93-.17a1.89 1.89 0 0 0-.63-.07c-2.14 0-8.66 1.6-9.57 6.51-.64 3.35 1.87 5.82 4.78 6.65 2.57-5.46 7.16-9.35 11.78-9.94 2.24-.3 4.06.3 4.96 1.63.71 1.07.78 2.5.19 3.95-1.54 3.77-7.85 6.78-14.47 6.93a25.25 25.25 0 0 0-1.08 4.8c-.58 4.71.25 8.86 2.22 11.08a5.43 5.43 0 0 0 4.36 1.84c4.14-.2 5.54-4.45 6.01-6.97l.13-2.54c.08-2.13 1.39-2.3 1.79-2.3.31 0 1.22.14 1.22.73-.46 6.6-1.12 11.72-2.03 15.69 4.97.34 11.01 1.3 16.3 2.2 4.41.75 9.42 1.5 13.19 1.5 3.22 0 5.16-.54 5.75-1.62.12-.2.2-.35.25-.47.1-.22.26-.56.66-.56.25 0 .43.14.67.32.85.58 1.43 1.6 1.47 2.57zm-41.4-1.86c-5.08.09-6.8 1.12-7.35 2-.63 1.05-.72 2.15-.23 3.01.46.81 1.33 1.3 2.33 1.3.36 0 .73-.07 1.1-.2 1.71-.6 3.11-2.66 4.16-6.1zm-8.62-26.7c3.96-.32 8.7-2.3 10-5.04.4-.9.45-1.71.13-2.21-.33-.51-1-.62-1.5-.62-.26 0-.54.03-.84.08-2.76.53-5.83 3.62-7.79 7.79z"/></defs><g transform="translate(-20 -8)"><use fill="#fff" xlink:href="#a"/></g></svg>