<svg xmlns="http://www.w3.org/2000/svg" xmlns:xlink="http://www.w3.org/1999/xlink" width="82" height="142" viewBox="0 0 82 142"><defs><path id="a" d="M328.53 2097.85c.24 0 .48 0 .72-.02l-21.37 60.88c-.6 1.73-1.4 2.6-2.21 2.6-.8 0-1.6-.87-2.21-2.6l-21.4-60.96c1.97-.22 3.87-.79 5.6-1.7.6.68 1.26 1.31 1.94 1.9l.04.04a18.8 18.8 0 0 0 2.41 1.71l-.34.35 3.27 3.28 1.65-1.65c1.14.32 2.31.53 3.5.63l-3.08 3.08 3.28 3.28 3.27-3.28-3.05-3.05a18.48 18.48 0 0 0 3.94-.2l1.18 1.19 1.94-1.95a18.53 18.53 0 0 0 9.56-7.4c.54.42 1.1.8 1.68 1.16l2.85 2.85 1.05-1.06c1.84.6 3.79.92 5.78.92zm-15.45 2.2l3.27 3.28 3.28-3.28-3.28-3.28zm-5.35 5.34l3.28 3.28 3.28-3.28-3.28-3.28zm-2.06 19.3l3.28-3.27-3.28-3.28-3.28 3.28zm0 4.14l-3.28 3.27 3.28 3.28 3.28-3.28zm5.34-9.48l3.28-3.27-3.28-3.28-3.28 3.28zm-8.62-8.62l3.28 3.28 3.28-3.28-3.28-3.27zm-2.06 2.07l-3.28 3.28 3.28 3.27 3.27-3.27zm-9.31-5.5l1.9-1.9-3.28-3.29-.32.33zm1.49 4.24l2.47 2.47 3.28-3.28-3.28-3.27-2.89 2.89zm4.06 11.57l1.7-1.7-3.29-3.27-.11.12zm3.76 6.93l3.27-3.28-3.27-3.28-2.69 2.69.65 1.83zm1.8 8.89l1.47-1.48-3.08-3.09zm6.01 3.05l-2.47-2.47-2.47 2.47 2.47 7.05zm2.68-7.62l-3.09 3.09 1.48 1.48zm2.87-8.2l-2.68-2.68-3.28 3.28 3.28 3.28 2.04-2.04zm2.78-7.9l-.12-.12-3.27 3.28 1.69 1.69zm2.78-7.91l-2.9-2.9-3.27 3.28 3.27 3.28 2.48-2.47zm2.77-7.9l-.32-.34-3.28 3.28 1.9 1.9zm23.1-23.2A16.61 16.61 0 0 1 317 2091.2l-.67.21a16.58 16.58 0 0 1-28.21 2.02 14.08 14.08 0 0 1-15.51-23.46 34.97 34.97 0 0 1-2.16-12.16c0-9.41 3.67-18.26 10.32-24.92a35.01 35.01 0 0 1 24.92-10.32c9.42 0 18.27 3.66 24.92 10.32a35.01 35.01 0 0 1 10.33 24.92c0 3.12-.41 6.2-1.22 9.2a16.6 16.6 0 0 1 5.39 12.23zm-6.3 0c0-3.41-1.67-6.6-4.49-8.52a3.14 3.14 0 0 1-1.2-3.6 28.91 28.91 0 0 0 1.53-9.31c0-7.73-3.01-15-8.48-20.47a28.77 28.77 0 0 0-20.48-8.48c-7.73 0-15 3-20.47 8.48a28.77 28.77 0 0 0-8.48 20.47c0 4.3.92 8.45 2.74 12.32a3.14 3.14 0 0 1-1.8 4.3 7.78 7.78 0 1 0 8.77 12.02 3.14 3.14 0 0 1 5.46.82 10.34 10.34 0 0 0 9.7 6.8c4.22 0 7.97-2.53 9.55-6.45a3.14 3.14 0 0 1 2.1-1.86c1.17-.31 2.33-.7 3.44-1.16 1.3-.54 2.8-.14 3.68.97a10.32 10.32 0 0 0 18.44-6.33z"/></defs><g transform="translate(-265 -2021)"><use fill="#e84d37" xlink:href="#a"/></g></svg>