<svg xmlns="http://www.w3.org/2000/svg" xmlns:xlink="http://www.w3.org/1999/xlink" width="35" height="34" viewBox="0 0 35 34"><defs><path id="a" d="M46.43 2352.17a15.7 15.7 0 1 1 0 31.38 15.7 15.7 0 0 1 0-31.38zm9.13 10.8a7.3 7.3 0 0 1-2.09.58 3.65 3.65 0 0 0 1.6-2.02c-.7.42-1.48.72-2.3.89a3.64 3.64 0 0 0-6.22 3.32 10.34 10.34 0 0 1-7.5-3.8 3.63 3.63 0 0 0 1.12 4.86 3.63 3.63 0 0 1-1.65-.46v.05a3.64 3.64 0 0 0 2.93 3.57 3.65 3.65 0 0 1-1.65.06 3.64 3.64 0 0 0 3.4 2.53 7.3 7.3 0 0 1-5.39 1.5 10.3 10.3 0 0 0 5.58 1.65c6.7 0 10.37-5.55 10.37-10.37l-.01-.47a7.4 7.4 0 0 0 1.81-1.88z"/></defs><g opacity=".8" transform="translate(-29 -2351)"><use fill="#fff" xlink:href="#a"/></g></svg>