<svg xmlns="http://www.w3.org/2000/svg" xmlns:xlink="http://www.w3.org/1999/xlink" width="34" height="34" viewBox="0 0 34 34"><defs><path id="a" d="M193.86 2352.23a15.7 15.7 0 1 1 0 31.38 15.7 15.7 0 0 1 0-31.38zm5.21 16.05a3.7 3.7 0 0 0-2.01-1.09v-.07a2.94 2.94 0 0 0 1.37-1.14c.33-.52.5-1.1.5-1.77 0-.57-.12-1.08-.36-1.52-.24-.44-.6-.79-1.1-1.05a4.3 4.3 0 0 0-1.44-.48 16.4 16.4 0 0 0-2.27-.11h-4.8v13.6h5.44c.94 0 1.72-.09 2.33-.26a4.8 4.8 0 0 0 1.69-.86 3.64 3.64 0 0 0 1.41-3.05c0-.92-.25-1.66-.76-2.2zm-3.61-3.39c0 .3-.05.56-.16.8-.1.21-.29.4-.56.52a2 2 0 0 1-.73.19 27 27 0 0 1-1.23.02h-.43v-2.88h.24l1.38.01c.3.01.57.07.8.17.23.1.4.27.52.5.11.23.17.45.17.67zm.64 6.4c-.14.27-.37.46-.68.6-.35.15-.7.23-1.04.24l-1.84.02h-.19v-3.4h.63l1.46.01c.36 0 .65.05.85.13.34.12.6.3.77.54.17.24.26.57.26.99 0 .32-.07.62-.22.88z"/></defs><g opacity=".8" transform="translate(-177 -2351)"><use fill="#fff" xlink:href="#a"/></g></svg>